<?xml version="1.0" encoding="utf-8"?>
<!-- Generator: Adobe Illustrator 16.0.0, SVG Export Plug-In . SVG Version: 6.00 Build 0)  -->
<!DOCTYPE svg PUBLIC "-//W3C//DTD SVG 1.1//EN" "http://www.w3.org/Graphics/SVG/1.1/DTD/svg11.dtd">
<svg version="1.1" id="Layer_1" xmlns="http://www.w3.org/2000/svg" xmlns:xlink="http://www.w3.org/1999/xlink" x="0px" y="0px"
	 width="411.109px" height="251px" viewBox="0 0 411.109 251" enable-background="new 0 0 411.109 251" xml:space="preserve">
<g>
	<rect x="10.778" y="186.374" fill="#CFD3D6" width="288.459" height="29.368"/>
	<g>
		<g>
			<path fill="#CFD3D6" d="M166.642,185.593c-36.541,0.249-73.167-0.37-108.661-0.382c-15.825,0-31.561,0-46.876,0h-0.887v0.887
				c0.006,10.006,0.012,19.77,0.017,29.352v0.869h0.869c88.466-0.063,172.98-0.221,253.73-0.004
				c7.491,0.011,19.813,0.026,27.496,0.037c15.956-0.057-0.174-1.045-7.808-1.185c-47.932-0.882-100.322-0.718-142.699-0.431
				c-43.717,0.297-87.32,0.33-130.72,0.271l0.442,0.44c0.018-9.797,0.036-19.586,0.054-29.352l-0.495,0.496
				c97.339,0.213,193.627,0.708,288.025-0.422l-0.074-0.072c0.049,3.857,0.097,7.692,0.146,11.524
				c0.071,5.231,0.354,27.362,0.688,13.12c0.15-6.479,0.188-15.773,0.18-24.645l-0.001-0.945l-0.938,0.004
				c-11.126,0.05-21.598,0.097-25.107,0.111C239.51,185.453,203.351,185.344,166.642,185.593z M179.724,185.846
				c-0.68-0.125,4.387-0.385,5.248-0.229C185.651,185.741,180.584,186.003,179.724,185.846z"/>
		</g>
	</g>
</g>
<g>
	<rect x="10.778" y="147.869" fill="#EAEBED" width="349.153" height="29.367"/>
	<g>
		<g>
			<path fill="#EAEBED" d="M196.439,147.088c-43.542,0.249-87.185-0.37-129.478-0.382c-18.882,0-37.659,0-55.856,0h-0.887v0.886
				c0.004,10.029,0.009,19.773,0.014,29.352v0.873h0.872c107.407-0.06,210.008-0.229,307.963-0.008
				c8.926,0.012,23.611,0.027,32.764,0.039c19.015-0.057-0.205-1.046-9.304-1.185c-57.115-0.882-119.542-0.718-170.036-0.431
				c-53.98,0.308-107.819,0.332-161.387,0.264l0.449,0.447c0.016-9.797,0.031-19.586,0.047-29.351l-0.495,0.495
				c117.921,0.217,234.544,0.725,348.826-0.479l-0.015-0.017c0.028,2.716,0.059,5.412,0.088,8.108
				c0.07,6.234,0.354,32.605,0.688,15.634c0.125-6.347,0.173-14.963,0.18-23.742l0.001-0.938h-0.938
				c-15.167-0.014-30.764,0.09-35.54,0.111C283.268,146.948,240.182,146.839,196.439,147.088z M212.027,147.34
				c-0.809-0.124,5.229-0.384,6.253-0.229C219.09,147.236,213.052,147.499,212.027,147.34z"/>
		</g>
	</g>
</g>
<g>
	<rect x="10.778" y="66.944" fill="#EAEBED" width="370.037" height="29.368"/>
	<g>
		<g>
			<path fill="#EAEBED" d="M206.566,66.163c-45.92,0.249-91.947-0.369-136.553-0.382c-19.92,0-39.729,0-58.908,0h-0.887v0.886
				c0.004,10.036,0.008,19.775,0.013,29.351l0.001,0.875h0.872c113.843-0.059,222.592-0.23,326.394-0.008
				c9.414,0.011,24.9,0.027,34.555,0.038c20.053-0.057-0.218-1.045-9.813-1.185c-60.235-0.882-126.072-0.718-179.327-0.431
				c-57.47,0.311-114.785,0.333-171.808,0.261l0.45,0.45c0.015-9.798,0.03-19.588,0.044-29.351l-0.494,0.495
				c124.916,0.217,248.449,0.73,369.49-0.496v0.001c0.023,2.326,0.048,4.637,0.071,6.947c0.07,6.575,0.354,34.386,0.688,16.489
				c0.118-6.302,0.166-14.726,0.178-23.436l0.002-0.937l-0.938-0.001c-16.479-0.023-33.878,0.087-39.085,0.11
				C298.138,66.022,252.698,65.914,206.566,66.163z M223.005,66.416c-0.854-0.124,5.514-0.384,6.595-0.228
				C230.454,66.311,224.087,66.573,223.005,66.416z"/>
		</g>
	</g>
</g>
<g>
	<rect x="10.778" y="29.092" fill="#CFD3D6" width="205.576" height="29.368"/>
	<g>
		<g>
			<path fill="#CFD3D6" d="M126.076,28.311c-27.012,0.248-54.085-0.369-80.322-0.382c-11.663,0-23.262,0-34.65,0h-0.886v0.886
				c0.008,9.963,0.017,19.76,0.025,29.352v0.862h0.86c62.673-0.066,122.569-0.204,179.9,0.004
				c5.536,0.021,14.646,0.064,20.324,0.038c11.794-0.057-0.127-1.045-5.771-1.184c-35.431-0.882-74.156-0.718-105.481-0.431
				c-29.743,0.273-59.416,0.324-88.972,0.283l0.43,0.429c0.021-9.797,0.043-19.583,0.065-29.352l-0.495,0.495
				c69.315,0.205,137.923,0.673,205.249-0.304l-0.19-0.19c0.089,5.41,0.176,10.795,0.264,16.173
				c0.071,3.868,0.354,20.227,0.688,9.699c0.215-6.803,0.199-17.809,0.149-25.872l-0.005-0.917l-0.905,0.006
				c-5.192,0.04-9.181,0.069-10.902,0.082C179.94,28.17,153.212,28.062,126.076,28.311z M135.746,28.563
				c-0.502-0.124,3.244-0.385,3.879-0.228C140.128,28.459,136.382,28.721,135.746,28.563z"/>
		</g>
	</g>
</g>
<g>
	<g>
		<g>
			<path fill="#959A9D" d="M11.312,189.297c-0.248-14.494,0.369-29.021,0.382-43.102c0.047-45.688-0.301-89.528-0.021-130.88
				c0.021-2.972,0.063-7.859,0.038-10.907c-0.057-6.329-1.044,0.069-1.185,3.097c-0.882,19.013-0.718,39.794-0.43,56.603
				c1.057,61.778-1.224,122.998,0.784,182.313c0.07,2.075,0.354,10.854,0.688,5.204c0.341-5.783,0.103-17.229,0.068-19.734
				C11.452,218.201,11.561,203.857,11.312,189.297z M11.059,194.484c0.125-0.27,0.384,1.74,0.229,2.082
				C11.164,196.837,10.902,194.827,11.059,194.484z"/>
		</g>
	</g>
</g>
<g>
	<g>
		<g>
			<path fill="#959A9D" d="M306.113,238.391c-23.479,0.248-47.017-0.369-69.824-0.383c-74.017-0.046-145.038,0.303-212.03,0.021
				c-4.813-0.021-12.733-0.064-17.668-0.038c-10.253,0.057,0.111,1.046,5.017,1.187c30.802,0.881,64.468,0.717,91.699,0.43
				c100.082-1.059,199.256,1.225,295.351-0.784c3.361-0.07,17.582-0.354,8.432-0.688c-9.369-0.34-27.911-0.102-31.971-0.068
				C352.938,238.249,329.702,238.141,306.113,238.391z M314.519,238.643c-0.438-0.123,2.819-0.385,3.372-0.228
				C318.327,238.538,315.073,238.8,314.519,238.643z"/>
		</g>
	</g>
</g>
</svg>
