<?xml version="1.0" encoding="utf-8"?>
<!-- Generator: Adobe Illustrator 16.0.0, SVG Export Plug-In . SVG Version: 6.00 Build 0)  -->
<!DOCTYPE svg PUBLIC "-//W3C//DTD SVG 1.1//EN" "http://www.w3.org/Graphics/SVG/1.1/DTD/svg11.dtd">
<svg version="1.1" id="Layer_1" xmlns="http://www.w3.org/2000/svg" xmlns:xlink="http://www.w3.org/1999/xlink" x="0px" y="0px"
	 width="627.221px" height="389px" viewBox="0 0 627.221 389" enable-background="new 0 0 627.221 389" xml:space="preserve">
<g>
	<g>
		<g>
			<path fill="#959A9D" d="M13.772,290.479c-0.38-22.209,0.566-44.471,0.586-66.043c0.07-70.009-0.462-137.184-0.031-200.546
				c0.031-4.553,0.099-12.043,0.058-16.712c-0.087-9.698-1.602,0.105-1.815,4.746c-1.351,29.133-1.1,60.975-0.659,86.731
				c1.619,94.661-1.876,188.465,1.201,279.354c0.108,3.18,0.543,16.631,1.055,7.975c0.521-8.861,0.155-26.398,0.104-30.237
				C13.987,334.768,14.153,312.791,13.772,290.479z M13.385,298.43c0.19-0.414,0.589,2.666,0.349,3.188
				C13.545,302.032,13.145,298.952,13.385,298.43z"/>
		</g>
	</g>
</g>
<g>
	<g>
		<g>
			<path fill="#959A9D" d="M465.489,365.703c-35.979,0.38-72.043-0.566-106.992-0.586c-113.413-0.07-222.238,0.462-324.888,0.031
				c-7.375-0.031-19.51-0.099-27.072-0.058c-15.711,0.087,0.17,1.603,7.688,1.815c47.196,1.351,98.781,1.1,140.507,0.66
				c153.354-1.621,305.317,1.875,452.559-1.202c5.15-0.108,26.941-0.544,12.919-1.054c-14.356-0.521-42.769-0.156-48.986-0.104
				C537.238,365.486,501.636,365.32,465.489,365.703z M478.369,366.09c-0.669-0.189,4.32-0.589,5.167-0.349
				C484.205,365.93,479.218,366.33,478.369,366.09z"/>
		</g>
	</g>
</g>
<g>
	<g>
		<g>
			<path fill="#83888C" d="M123.265,213.238c-8.21,9.359-17.722,17.52-26.073,26.252c-27.104,28.335-52.534,56.074-77.422,81.384
				c-1.789,1.817-4.747,4.794-6.51,6.726c-3.662,4.015,1.587,1.431,3.585-0.256c12.556-10.576,24.611-23.725,34.134-34.578
				c34.995-39.89,74.6-74.729,106.729-114.428c1.124-1.39,5.897-7.247,2.063-4.204c-3.926,3.116-10.346,10.566-11.777,12.171
				C140.162,195.074,131.514,203.836,123.265,213.238z M126.709,210.369c-0.343-0.008,0.461-1.624,0.895-1.615
				C127.946,208.76,127.144,210.378,126.709,210.369z"/>
		</g>
	</g>
</g>
<g>
	<g>
		<g>
			<path fill="#83888C" d="M264.513,223.044c-8.108-3.403-15.458-8.401-23.105-12.174c-24.817-12.243-48.981-23.273-71.229-34.794
				c-1.598-0.829-4.218-2.21-5.9-2.972c-3.494-1.581-0.9,1.937,0.622,2.998c9.554,6.678,21.007,11.908,30.41,15.854
				c34.562,14.501,65.82,34.981,99.896,47.082c1.191,0.423,6.224,2.237,3.448,0.123c-2.841-2.164-9.281-4.772-10.676-5.376
				C280.365,230.479,272.659,226.462,264.513,223.044z M267.109,224.889c-0.034-0.299,1.292-0.242,1.337,0.137
				C268.482,225.323,267.154,225.268,267.109,224.889z"/>
		</g>
	</g>
</g>
<g>
	<g>
		<g>
			<path fill="#83888C" d="M437.643,118.831c-10.434,9.766-22.053,18.221-32.528,27.315c-33.997,29.51-66.094,58.428-97.186,84.768
				c-2.234,1.893-5.924,4.988-8.151,7.003c-4.625,4.185,1.454,1.565,3.892-0.181c15.306-10.952,30.521-24.658,42.619-35.983
				c44.468-41.625,93.001-77.745,134.362-119.241c1.446-1.452,7.585-7.573,2.942-4.428c-4.753,3.22-12.935,10.998-14.749,12.672
				C458.922,99.901,448.122,109.02,437.643,118.831z M441.836,115.86c-0.367-0.017,0.775-1.719,1.239-1.698
				C443.441,114.177,442.3,115.881,441.836,115.86z"/>
		</g>
	</g>
</g>
<g>
	<g>
		<g>
			<path fill="#959A9D" d="M134.954,250.736c-9.327,2.681-19.074,3.645-28.251,5.742c-29.781,6.805-58.178,14.109-85.241,19.791
				c-1.945,0.408-5.149,1.059-7.122,1.57c-4.097,1.068,0.527,2.07,2.563,1.891c12.791-1.114,26.251-4.576,37.067-7.685
				c39.752-11.426,80.68-16.122,118.39-29.069c1.319-0.455,6.906-2.345,3.073-2.154c-3.924,0.195-11.269,2.396-12.885,2.843
				C153.716,246.096,144.324,248.044,134.954,250.736z M138.45,250.457c-0.233-0.206,0.955-1.027,1.25-0.768
				C139.933,249.895,138.745,250.718,138.45,250.457z"/>
		</g>
	</g>
</g>
<g>
	<g>
		<g>
			<path fill="#959A9D" d="M285.856,147.876c-8.136,7.526-17.431,13.717-25.669,20.631c-26.733,22.432-51.873,44.566-76.386,64.495
				c-1.762,1.432-4.674,3.771-6.417,5.313c-3.621,3.207,1.417,1.599,3.369,0.324c12.262-7.988,24.179-18.479,33.614-27.207
				c34.676-32.078,73.423-58.667,105.407-91.018c1.119-1.132,5.87-5.9,2.133-3.637c-3.825,2.317-10.191,8.327-11.609,9.614
				C302.547,133.42,294.03,140.315,285.856,147.876z M289.219,145.715c-0.32-0.061,0.51-1.458,0.916-1.381
				C290.454,144.394,289.625,145.792,289.219,145.715z"/>
		</g>
	</g>
</g>
<g>
	<g>
		<g>
			<path fill="#959A9D" d="M449.522,162.274c-9.847-3.094-19.104-7.855-28.488-11.348c-30.454-11.338-59.951-21.469-87.346-32.19
				c-1.968-0.771-5.198-2.06-7.25-2.758c-4.264-1.45-0.693,2.02,1.229,3.033c12.063,6.372,26.046,11.175,37.465,14.764
				c41.969,13.188,81.203,32.636,122.201,43.394c1.436,0.376,7.493,1.993,3.959-0.036c-3.617-2.077-11.424-4.438-13.119-4.989
				C468.907,169.123,459.414,165.383,449.522,162.274z M452.806,164.037c-0.092-0.304,1.434-0.309,1.551,0.076
				C454.448,164.415,452.923,164.421,452.806,164.037z"/>
		</g>
	</g>
</g>
</svg>
